<svg width="18" height="18" viewBox="0 0 18 18" fill="none" xmlns="http://www.w3.org/2000/svg">
<path fill-rule="evenodd" clip-rule="evenodd" d="M8.58341 1.91675H2.33341C2.1033 1.91675 1.91675 2.1033 1.91675 2.33342V15.6667C1.91675 15.8969 2.1033 16.0834 2.33341 16.0834H8.16675C8.39687 16.0834 8.58341 15.8969 8.58341 15.6667V1.91675ZM2.33341 0.666748C1.41294 0.666748 0.666748 1.41294 0.666748 2.33342V15.6667C0.666748 16.5872 1.41294 17.3334 2.33341 17.3334H8.16675C9.08722 17.3334 9.83341 16.5872 9.83341 15.6667V0.666748H2.33341Z" fill="#08C7E0"/>
<path fill-rule="evenodd" clip-rule="evenodd" d="M15.6667 1.91675H9.83341V11.0834H15.6667C15.8969 11.0834 16.0834 10.8969 16.0834 10.6667V2.33341C16.0834 2.1033 15.8969 1.91675 15.6667 1.91675ZM8.58341 0.666748V12.3334H15.6667C16.5872 12.3334 17.3334 11.5872 17.3334 10.6667V2.33341C17.3334 1.41294 16.5872 0.666748 15.6667 0.666748H8.58341Z" fill="#08C7E0"/>
</svg>
