<svg width="18" height="18" viewBox="0 0 18 18" fill="none" xmlns="http://www.w3.org/2000/svg">
<path fill-rule="evenodd" clip-rule="evenodd" d="M8.58317 1.91675H2.33317C2.10305 1.91675 1.9165 2.1033 1.9165 2.33342V15.6667C1.9165 15.8969 2.10305 16.0834 2.33317 16.0834H8.1665C8.39662 16.0834 8.58317 15.8969 8.58317 15.6667V1.91675ZM2.33317 0.666748C1.4127 0.666748 0.666504 1.41294 0.666504 2.33342V15.6667C0.666504 16.5872 1.4127 17.3334 2.33317 17.3334H8.1665C9.08698 17.3334 9.83317 16.5872 9.83317 15.6667V0.666748H2.33317Z" fill="#848588"/>
<path fill-rule="evenodd" clip-rule="evenodd" d="M15.6665 1.91675H9.83317V11.0834H15.6665C15.8966 11.0834 16.0832 10.8969 16.0832 10.6667V2.33341C16.0832 2.1033 15.8966 1.91675 15.6665 1.91675ZM8.58317 0.666748V12.3334H15.6665C16.587 12.3334 17.3332 11.5872 17.3332 10.6667V2.33341C17.3332 1.41294 16.587 0.666748 15.6665 0.666748H8.58317Z" fill="#848588"/>
</svg>
