<svg width="18" height="12" viewBox="0 0 18 12" fill="none" xmlns="http://www.w3.org/2000/svg">
<path fill-rule="evenodd" clip-rule="evenodd" d="M13.8333 0.791748C13.8333 1.13693 13.5535 1.41675 13.2083 1.41675H6.125C5.77982 1.41675 5.5 1.13693 5.5 0.791748C5.5 0.44657 5.77982 0.166748 6.125 0.166748H13.2083C13.5535 0.166748 13.8333 0.44657 13.8333 0.791748Z" fill="#08C7E0"/>
<path fill-rule="evenodd" clip-rule="evenodd" d="M10.5 6.00008C10.5 6.34526 10.2202 6.62508 9.875 6.62508H1.125C0.779822 6.62508 0.5 6.34526 0.5 6.00008C0.5 5.6549 0.779822 5.37508 1.125 5.37508H9.875C10.2202 5.37508 10.5 5.6549 10.5 6.00008Z" fill="#08C7E0"/>
<path fill-rule="evenodd" clip-rule="evenodd" d="M17.1667 11.2084C17.1667 11.5536 16.8868 11.8334 16.5417 11.8334H4.45833C4.11315 11.8334 3.83333 11.5536 3.83333 11.2084C3.83333 10.8632 4.11315 10.5834 4.45833 10.5834H16.5417C16.8868 10.5834 17.1667 10.8632 17.1667 11.2084Z" fill="#08C7E0"/>
</svg>
