<svg width="16" height="16" viewBox="0 0 16 16" fill="none" xmlns="http://www.w3.org/2000/svg">
<path d="M8 8.83301C8.41421 8.83301 8.75 8.49722 8.75 8.08301C8.75 7.66879 8.41421 7.33301 8 7.33301C7.58579 7.33301 7.25 7.66879 7.25 8.08301C7.25 8.49722 7.58579 8.83301 8 8.83301Z" fill="#848588"/>
<path d="M13.25 8.83301C13.6642 8.83301 14 8.49722 14 8.08301C14 7.66879 13.6642 7.33301 13.25 7.33301C12.8358 7.33301 12.5 7.66879 12.5 8.08301C12.5 8.49722 12.8358 8.83301 13.25 8.83301Z" fill="#848588"/>
<path d="M2.75 8.83301C3.16421 8.83301 3.5 8.49722 3.5 8.08301C3.5 7.66879 3.16421 7.33301 2.75 7.33301C2.33579 7.33301 2 7.66879 2 8.08301C2 8.49722 2.33579 8.83301 2.75 8.83301Z" fill="#848588"/>
<path d="M8 8.83301C8.41421 8.83301 8.75 8.49722 8.75 8.08301C8.75 7.66879 8.41421 7.33301 8 7.33301C7.58579 7.33301 7.25 7.66879 7.25 8.08301C7.25 8.49722 7.58579 8.83301 8 8.83301Z" stroke="#848588" stroke-linecap="round" stroke-linejoin="round"/>
<path d="M13.25 8.83301C13.6642 8.83301 14 8.49722 14 8.08301C14 7.66879 13.6642 7.33301 13.25 7.33301C12.8358 7.33301 12.5 7.66879 12.5 8.08301C12.5 8.49722 12.8358 8.83301 13.25 8.83301Z" stroke="#848588" stroke-linecap="round" stroke-linejoin="round"/>
<path d="M2.75 8.83301C3.16421 8.83301 3.5 8.49722 3.5 8.08301C3.5 7.66879 3.16421 7.33301 2.75 7.33301C2.33579 7.33301 2 7.66879 2 8.08301C2 8.49722 2.33579 8.83301 2.75 8.83301Z" stroke="#848588" stroke-linecap="round" stroke-linejoin="round"/>
</svg>
