<svg width="24" height="24" viewBox="0 0 24 24" fill="none" xmlns="http://www.w3.org/2000/svg">
<g clip-path="url(#clip0_3891_2158)">
<circle cx="12" cy="12" r="12" fill="#D5E6FF"/>
<rect x="8.62842" y="6.94727" width="6.29621" height="10.1053" rx="3.14811" fill="white"/>
<path d="M7.5791 8.39087C7.5791 7.59359 8.20553 6.94727 8.97826 6.94727H15.2745C16.0472 6.94727 16.6736 7.59359 16.6736 8.39087V15.6089C16.6736 16.4062 16.0472 17.0525 15.2745 17.0525H8.97826C8.20553 17.0525 7.5791 16.4062 7.5791 15.6089V8.39087Z" fill="#5197F8"/>
<path d="M7.57959 9.83479H16.6741V10.5566H7.57959V9.83479Z" fill="white"/>
<path d="M8.97875 8.03027H9.67833V8.75208H8.97875V8.03027Z" fill="white"/>
<path d="M10.3779 8.03027H11.0775V8.75208H10.3779V8.03027Z" fill="white"/>
</g>
<defs>
<clipPath id="clip0_3891_2158">
<rect width="24" height="24" fill="white"/>
</clipPath>
</defs>
</svg>
