<svg width="18" height="12" viewBox="0 0 18 12" fill="none" xmlns="http://www.w3.org/2000/svg">
<path fill-rule="evenodd" clip-rule="evenodd" d="M17.3334 0.791749C17.3334 1.13693 17.0536 1.41675 16.7084 1.41675H1.29175C0.946571 1.41675 0.666748 1.13693 0.666748 0.791749C0.666748 0.44657 0.946571 0.166748 1.29175 0.166748H16.7084C17.0536 0.166748 17.3334 0.44657 17.3334 0.791749Z" fill="#848588"/>
<path fill-rule="evenodd" clip-rule="evenodd" d="M17.3334 6.00008C17.3334 6.34526 17.0536 6.62508 16.7084 6.62508H1.29175C0.94657 6.62508 0.666748 6.34526 0.666748 6.00008C0.666748 5.6549 0.946571 5.37508 1.29175 5.37508H16.7084C17.0536 5.37508 17.3334 5.6549 17.3334 6.00008Z" fill="#848588"/>
<path fill-rule="evenodd" clip-rule="evenodd" d="M17.3334 11.2084C17.3334 11.5536 17.0536 11.8334 16.7084 11.8334H1.29175C0.94657 11.8334 0.666748 11.5536 0.666748 11.2084C0.666748 10.8632 0.94657 10.5834 1.29175 10.5834H16.7084C17.0536 10.5834 17.3334 10.8632 17.3334 11.2084Z" fill="#848588"/>
</svg>
