<svg width="18" height="12" viewBox="0 0 18 12" fill="none" xmlns="http://www.w3.org/2000/svg">
<path fill-rule="evenodd" clip-rule="evenodd" d="M17.3337 0.791749C17.3337 1.13693 17.0538 1.41675 16.7087 1.41675H1.29199C0.946815 1.41675 0.666992 1.13693 0.666992 0.791749C0.666992 0.44657 0.946815 0.166748 1.29199 0.166748H16.7087C17.0538 0.166748 17.3337 0.44657 17.3337 0.791749Z" fill="#08C7E0"/>
<path fill-rule="evenodd" clip-rule="evenodd" d="M17.3337 6.00008C17.3337 6.34526 17.0538 6.62508 16.7087 6.62508H1.29199C0.946814 6.62508 0.666992 6.34526 0.666992 6.00008C0.666992 5.6549 0.946815 5.37508 1.29199 5.37508H16.7087C17.0538 5.37508 17.3337 5.6549 17.3337 6.00008Z" fill="#08C7E0"/>
<path fill-rule="evenodd" clip-rule="evenodd" d="M17.3337 11.2084C17.3337 11.5536 17.0538 11.8334 16.7087 11.8334H1.29199C0.946814 11.8334 0.666992 11.5536 0.666992 11.2084C0.666992 10.8632 0.946814 10.5834 1.29199 10.5834H16.7087C17.0538 10.5834 17.3337 10.8632 17.3337 11.2084Z" fill="#08C7E0"/>
</svg>
