<svg width="12" height="12" viewBox="0 0 12 12" fill="none" xmlns="http://www.w3.org/2000/svg">
<path fill-rule="evenodd" clip-rule="evenodd" d="M8.61374 3.914C8.79936 4.06868 8.82444 4.34455 8.66976 4.53017L5.7969 7.9776C5.60868 8.20347 5.26714 8.21896 5.05924 8.01106L3.35763 6.30945C3.18678 6.1386 3.18678 5.86159 3.35763 5.69073C3.52849 5.51988 3.8055 5.51988 3.97635 5.69073L5.38759 7.10197L7.99756 3.97001C8.15225 3.78439 8.42812 3.75931 8.61374 3.914Z" fill="#BDBDBD"/>
<path fill-rule="evenodd" clip-rule="evenodd" d="M10.667 1.04175H1.33366C1.17258 1.04175 1.04199 1.17233 1.04199 1.33342V10.6667C1.04199 10.8278 1.17258 10.9584 1.33366 10.9584H10.667C10.8281 10.9584 10.9587 10.8278 10.9587 10.6667V1.33341C10.9587 1.17233 10.8281 1.04175 10.667 1.04175ZM1.33366 0.166748C0.689327 0.166748 0.166992 0.689083 0.166992 1.33342V10.6667C0.166992 11.3111 0.689327 11.8334 1.33366 11.8334H10.667C11.3113 11.8334 11.8337 11.3111 11.8337 10.6667V1.33341C11.8337 0.689083 11.3113 0.166748 10.667 0.166748H1.33366Z" fill="#BDBDBD"/>
</svg>
