<svg width="14" height="14" viewBox="0 0 14 14" fill="none" xmlns="http://www.w3.org/2000/svg">
<path fill-rule="evenodd" clip-rule="evenodd" d="M2.33366 1.16675C1.68933 1.16675 1.16699 1.68908 1.16699 2.33341V11.6667C1.16699 12.3111 1.68933 12.8334 2.33366 12.8334H11.667C12.3113 12.8334 12.8337 12.3111 12.8337 11.6667V2.33341C12.8337 1.68908 12.3113 1.16675 11.667 1.16675H2.33366ZM9.66976 5.53017C9.82444 5.34455 9.79936 5.06868 9.61374 4.914C9.42812 4.75931 9.15225 4.78439 8.99756 4.97001L6.38759 8.10197L4.97635 6.69073C4.8055 6.51988 4.52849 6.51988 4.35763 6.69073C4.18678 6.86159 4.18678 7.1386 4.35763 7.30945L6.05924 9.01106C6.26714 9.21896 6.60868 9.20347 6.7969 8.9776L9.66976 5.53017Z" fill="#00CA72"/>
</svg>
